<?xml version="1.0" encoding="UTF-8"?>
<svg id="Layer_2" data-name="Layer 2" xmlns="http://www.w3.org/2000/svg" viewBox="0 0 281.69 281.69">
  <defs>
    <style>
      .cls-1 {
        fill: #efcf1b;
      }

      .cls-1, .cls-2 {
        stroke-width: 0px;
      }

      .cls-2 {
        fill: #eae710;
      }
    </style>
  </defs>
  <g id="Sun_and_Clouds" data-name="Sun and Clouds">
    <g>
      <g id="Sol_1" data-name="Sol 1">
        <path class="cls-1" d="M281.69,140.85c-56.15,11.69-58.52,22.83-11.07,54.82-56.03-11.73-62.23-2.6-30.18,44.77-47.37-32.04-56.5-25.84-44.77,30.18-31.99-47.46-43.13-45.09-54.82,11.07-11.69-56.15-22.83-58.52-54.82-11.07,11.73-56.03,2.6-62.23-44.77-30.18,32.04-47.37,25.84-56.5-30.18-44.77,47.46-31.99,45.09-43.13-11.07-54.82,56.15-11.69,58.52-22.83,11.07-54.82,56.03,11.73,62.23,2.6,30.18-44.77,47.37,32.04,56.5,25.84,44.77-30.18,31.99,47.46,43.13,45.09,54.82-11.07,11.69,56.15,22.83,58.52,54.82,11.07-11.73,56.03-2.6,62.23,44.77,30.18-32.04,47.37-25.84,56.5,30.18,44.77-47.46,31.99-45.09,43.13,11.07,54.82Z"/>
      </g>
      <circle id="Sol_2" data-name="Sol 2" class="cls-2" cx="140.85" cy="140.85" r="85.33"/>
    </g>
  </g>
</svg>